<mxfile host="app.diagrams.net" modified="2024-01-31T07:34:14.230Z" agent="Mozilla/5.0 (X11; CrOS x86_64 14541.0.0) AppleWebKit/537.36 (KHTML, like Gecko) Chrome/120.0.0.0 Safari/537.36" etag="bwvTjzWJ7hDuEg7MSP56" version="23.0.2" type="github">
  <diagram name="Page-1" id="xOnVEYrVPAXxLygGMSiz">
    <mxGraphModel dx="2946" dy="1554" grid="1" gridSize="10" guides="1" tooltips="1" connect="1" arrows="1" fold="1" page="1" pageScale="1" pageWidth="827" pageHeight="1169" math="0" shadow="0">
      <root>
        <mxCell id="0" />
        <mxCell id="1" parent="0" />
        <mxCell id="2FDOJqendrMGjCf90mKz-3" value="" style="edgeStyle=orthogonalEdgeStyle;rounded=0;orthogonalLoop=1;jettySize=auto;html=1;" edge="1" parent="1" source="2FDOJqendrMGjCf90mKz-1" target="2FDOJqendrMGjCf90mKz-2">
          <mxGeometry relative="1" as="geometry" />
        </mxCell>
        <mxCell id="2FDOJqendrMGjCf90mKz-1" value="Pengunjung Perpus" style="rounded=1;whiteSpace=wrap;html=1;" vertex="1" parent="1">
          <mxGeometry x="40" y="250" width="120" height="60" as="geometry" />
        </mxCell>
        <mxCell id="2FDOJqendrMGjCf90mKz-5" value="" style="edgeStyle=orthogonalEdgeStyle;rounded=0;orthogonalLoop=1;jettySize=auto;html=1;" edge="1" parent="1" source="2FDOJqendrMGjCf90mKz-2" target="2FDOJqendrMGjCf90mKz-4">
          <mxGeometry relative="1" as="geometry" />
        </mxCell>
        <mxCell id="2FDOJqendrMGjCf90mKz-2" value="Masuk ke Perpus" style="whiteSpace=wrap;html=1;rounded=1;" vertex="1" parent="1">
          <mxGeometry x="240" y="250" width="120" height="60" as="geometry" />
        </mxCell>
        <mxCell id="2FDOJqendrMGjCf90mKz-7" value="" style="edgeStyle=orthogonalEdgeStyle;rounded=0;orthogonalLoop=1;jettySize=auto;html=1;" edge="1" parent="1" source="2FDOJqendrMGjCf90mKz-4" target="2FDOJqendrMGjCf90mKz-6">
          <mxGeometry relative="1" as="geometry" />
        </mxCell>
        <mxCell id="2FDOJqendrMGjCf90mKz-4" value="Mengisi Buku Kunjungan" style="whiteSpace=wrap;html=1;rounded=1;" vertex="1" parent="1">
          <mxGeometry x="240" y="110" width="120" height="60" as="geometry" />
        </mxCell>
        <mxCell id="2FDOJqendrMGjCf90mKz-9" value="" style="edgeStyle=orthogonalEdgeStyle;rounded=0;orthogonalLoop=1;jettySize=auto;html=1;" edge="1" parent="1" source="2FDOJqendrMGjCf90mKz-6" target="2FDOJqendrMGjCf90mKz-8">
          <mxGeometry relative="1" as="geometry" />
        </mxCell>
        <mxCell id="2FDOJqendrMGjCf90mKz-6" value="KIrim" style="whiteSpace=wrap;html=1;rounded=1;" vertex="1" parent="1">
          <mxGeometry x="440" y="110" width="120" height="60" as="geometry" />
        </mxCell>
        <mxCell id="2FDOJqendrMGjCf90mKz-11" value="" style="edgeStyle=orthogonalEdgeStyle;rounded=0;orthogonalLoop=1;jettySize=auto;html=1;" edge="1" parent="1" source="2FDOJqendrMGjCf90mKz-8" target="2FDOJqendrMGjCf90mKz-10">
          <mxGeometry relative="1" as="geometry" />
        </mxCell>
        <mxCell id="2FDOJqendrMGjCf90mKz-8" value="Daftar Pengunjung" style="whiteSpace=wrap;html=1;rounded=1;" vertex="1" parent="1">
          <mxGeometry x="640" y="110" width="120" height="60" as="geometry" />
        </mxCell>
        <mxCell id="2FDOJqendrMGjCf90mKz-13" value="" style="edgeStyle=orthogonalEdgeStyle;rounded=0;orthogonalLoop=1;jettySize=auto;html=1;" edge="1" parent="1" source="2FDOJqendrMGjCf90mKz-10" target="2FDOJqendrMGjCf90mKz-12">
          <mxGeometry relative="1" as="geometry" />
        </mxCell>
        <mxCell id="2FDOJqendrMGjCf90mKz-10" value="Pengunjung Mencari Buku" style="whiteSpace=wrap;html=1;rounded=1;" vertex="1" parent="1">
          <mxGeometry x="640" y="250" width="120" height="60" as="geometry" />
        </mxCell>
        <mxCell id="2FDOJqendrMGjCf90mKz-15" value="" style="edgeStyle=orthogonalEdgeStyle;rounded=0;orthogonalLoop=1;jettySize=auto;html=1;" edge="1" parent="1" source="2FDOJqendrMGjCf90mKz-12" target="2FDOJqendrMGjCf90mKz-14">
          <mxGeometry relative="1" as="geometry" />
        </mxCell>
        <mxCell id="2FDOJqendrMGjCf90mKz-12" value="Memasukan Kata Kunci" style="whiteSpace=wrap;html=1;rounded=1;" vertex="1" parent="1">
          <mxGeometry x="640" y="390" width="120" height="60" as="geometry" />
        </mxCell>
        <mxCell id="2FDOJqendrMGjCf90mKz-17" value="" style="edgeStyle=orthogonalEdgeStyle;rounded=0;orthogonalLoop=1;jettySize=auto;html=1;" edge="1" parent="1" source="2FDOJqendrMGjCf90mKz-14" target="2FDOJqendrMGjCf90mKz-16">
          <mxGeometry relative="1" as="geometry" />
        </mxCell>
        <mxCell id="2FDOJqendrMGjCf90mKz-14" value="Mendapatkan Buku" style="whiteSpace=wrap;html=1;rounded=1;" vertex="1" parent="1">
          <mxGeometry x="440" y="390" width="120" height="60" as="geometry" />
        </mxCell>
        <mxCell id="2FDOJqendrMGjCf90mKz-18" value="" style="edgeStyle=orthogonalEdgeStyle;rounded=0;orthogonalLoop=1;jettySize=auto;html=1;" edge="1" parent="1" source="2FDOJqendrMGjCf90mKz-16" target="2FDOJqendrMGjCf90mKz-2">
          <mxGeometry relative="1" as="geometry" />
        </mxCell>
        <mxCell id="2FDOJqendrMGjCf90mKz-16" value="Pengunjung Melihat Detail Buku" style="whiteSpace=wrap;html=1;rounded=1;" vertex="1" parent="1">
          <mxGeometry x="240" y="390" width="120" height="60" as="geometry" />
        </mxCell>
      </root>
    </mxGraphModel>
  </diagram>
</mxfile>
